# Blender v2.93.0 OBJ File: 'untitled.blend'
# www.blender.org
mtllib character.mtl
o Mange
v -0.000175 0.012606 -0.006911
v -0.000175 0.012423 -0.004821
v 0.002012 0.011023 -0.007049
v 0.002012 0.010841 -0.004959
v 0.001177 0.008462 -0.007273
v 0.001177 0.008280 -0.005183
v -0.001526 0.008462 -0.007273
v -0.001526 0.008280 -0.005183
v -0.002361 0.011023 -0.007049
v -0.002361 0.010840 -0.004959
v -0.000175 0.011837 -0.008378
v 0.001162 0.010869 -0.008462
v 0.000651 0.009304 -0.008599
v -0.001001 0.009304 -0.008599
v -0.001511 0.010869 -0.008462
v -0.001823 0.014370 -0.005157
v -0.001764 0.017928 -0.004905
v -0.001823 0.014386 -0.005339
v -0.001764 0.017933 -0.004971
v -0.001640 0.014370 -0.005157
v -0.001698 0.017928 -0.004905
v -0.001640 0.014386 -0.005339
v -0.001698 0.017933 -0.004971
v -0.002618 0.014448 -0.005084
v -0.002517 0.020579 -0.004649
v -0.002618 0.014475 -0.005398
v -0.002517 0.020589 -0.004763
v -0.002303 0.014448 -0.005084
v -0.002403 0.020579 -0.004649
v -0.002303 0.014475 -0.005398
v -0.002403 0.020589 -0.004763
v -0.003509 0.012770 -0.003606
v -0.003509 0.014532 -0.003452
v -0.003509 0.012982 -0.006038
v -0.003509 0.014745 -0.005884
v 0.003159 0.012770 -0.003606
v 0.003159 0.014532 -0.003452
v 0.003159 0.012982 -0.006038
v 0.003159 0.014745 -0.005884
v -0.003803 0.006667 -0.003763
v -0.003803 0.013171 -0.003195
v -0.003803 0.006945 -0.006941
v -0.003803 0.013449 -0.006373
v 0.003453 0.006667 -0.003763
v 0.003453 0.013171 -0.003195
v 0.003453 0.006945 -0.006941
v 0.003453 0.013449 -0.006373
v -0.003009 0.012770 -0.003606
v -0.003009 0.014745 -0.005884
v -0.003009 0.014532 -0.003452
v -0.003009 0.012982 -0.006038
v -0.001240 0.012770 -0.003606
v -0.001240 0.014532 -0.003452
v -0.001239 0.012982 -0.006038
v -0.001239 0.014745 -0.005884
v -0.003509 0.014624 -0.004499
v -0.003509 0.012861 -0.004653
v 0.003159 0.014624 -0.004499
v 0.003159 0.012861 -0.004653
v -0.001240 0.014624 -0.004499
v -0.003009 0.014624 -0.004499
v -0.003009 0.015214 -0.005843
v -0.001239 0.015214 -0.005843
v -0.001240 0.015093 -0.004458
v -0.003009 0.015093 -0.004458
v 0.002799 0.008563 -0.004373
v 0.002799 0.011858 -0.004085
v 0.002799 0.008701 -0.005954
v 0.002799 0.011996 -0.005667
v 0.004387 0.009067 -0.004563
v 0.004387 0.011394 -0.004359
v 0.004387 0.009165 -0.005680
v 0.004387 0.011491 -0.005476
v -0.004736 0.009164 -0.005680
v -0.004736 0.011491 -0.005477
v -0.004736 0.009067 -0.004563
v -0.004736 0.011394 -0.004360
v -0.003148 0.008701 -0.005954
v -0.003148 0.011996 -0.005667
v -0.003148 0.008562 -0.004373
v -0.003148 0.011858 -0.004085
v 0.005494 0.009288 0.000827
v 0.004404 0.011034 0.000585
v 0.004646 0.009766 0.000995
v 0.005051 0.010230 -0.002345
v 0.003131 0.006291 0.001413
v 0.003875 0.013627 0.001955
v 0.003150 0.004856 -0.003237
v 0.003830 0.014378 -0.002894
v 0.005767 0.012350 0.001569
v 0.006189 0.012837 -0.001938
v 0.003723 0.010441 -0.003124
v 0.003736 0.009890 0.001510
v 0.005683 0.011971 0.001333
v 0.006818 0.010154 0.001585
v 0.006026 0.009953 0.002966
v 0.004922 0.011724 0.002692
v 0.004753 0.009118 0.002240
v 0.003702 0.010804 0.001979
v 0.003220 0.003484 0.001811
v 0.003245 0.002117 -0.001627
v 0.000262 0.003598 0.002173
v 0.000293 0.001938 -0.002040
v 0.003228 -0.000218 0.001072
v 0.003073 0.000073 -0.001405
v 0.000931 -0.000222 0.001313
v 0.000765 0.000217 -0.001396
v -0.006732 0.009066 -0.001033
v -0.005685 0.009346 0.000733
v -0.004571 0.009819 0.000775
v -0.004821 0.010355 -0.002569
v -0.003487 0.005718 0.001588
v -0.004202 0.013631 0.001950
v -0.003502 0.005522 -0.003299
v -0.004180 0.014378 -0.002894
v -0.000175 0.014430 -0.003207
v -0.000177 0.004853 -0.003553
v -0.000175 0.013651 0.002778
v -0.000176 0.005639 0.002077
v -0.005654 0.012418 0.001352
v -0.005910 0.013000 -0.002154
v -0.004073 0.010441 -0.003124
v -0.004085 0.009890 0.001510
v -0.000175 0.009817 0.002630
v -0.000175 0.010286 -0.003569
v -0.006906 0.010462 0.001315
v -0.007996 0.010172 -0.000523
v -0.008680 0.008903 0.000184
v -0.007596 0.009200 0.001963
v -0.007468 0.007839 -0.000307
v -0.006435 0.008121 0.001387
v -0.003589 0.003005 0.001158
v -0.003620 0.002701 -0.002530
v -0.000631 0.002986 0.001535
v -0.000668 0.002628 -0.002979
v -0.003497 -0.000171 -0.001062
v -0.003245 0.001089 -0.003205
v -0.001214 -0.000248 -0.000726
v -0.000945 0.001239 -0.003023
v -0.000205 0.012741 -0.002089
v 0.002752 0.013894 0.002826
v -0.003112 0.013902 0.002857
v -0.004945 0.016195 -0.002230
v -0.000184 0.017934 -0.004227
v 0.004543 0.016182 -0.002281
v -0.004917 0.019483 0.002597
v -0.003126 0.021771 -0.002510
v 0.002738 0.021763 -0.002542
v 0.004570 0.019471 0.002546
v -0.000169 0.022925 0.002404
v 0.002508 0.014234 0.002844
v -0.002868 0.014241 0.002873
v 0.004176 0.019346 0.002587
v -0.000162 0.018054 0.005499
v -0.004523 0.019358 0.002634
v -0.000169 0.022513 0.002457
v -0.003803 0.013449 -0.006373
v -0.003803 0.006945 -0.006941
v 0.003453 0.013449 -0.006373
v 0.003453 0.006945 -0.006941
vn 0.0037 -0.5690 0.8224
vn 0.5814 -0.1495 0.7998
vn -0.5735 -0.1479 0.8057
vn 0.3604 0.5261 0.7703
vn -0.3508 0.5273 0.7739
vn -1.0000 -0.0000 -0.0000
vn 0.0000 0.0870 -0.9962
vn 1.0000 0.0000 0.0000
vn -0.0000 -0.0870 0.9962
vn -0.0000 0.9962 0.0870
vn -0.1522 0.3674 -0.9175
vn -0.3674 0.1522 -0.9175
vn -0.1579 -0.3812 -0.9109
vn 0.0000 -0.9962 -0.0870
vn 0.0000 -0.7701 -0.6380
vn 0.5466 0.8223 0.1581
vn 0.5256 0.8388 0.1422
vn 0.5058 0.8531 0.1276
vn 0.1068 0.0045 -0.9943
vn 0.1018 0.0015 -0.9948
vn 0.0945 -0.0030 -0.9955
vn 0.9915 -0.1295 0.0110
vn 0.9913 -0.1309 0.0096
vn 0.9941 -0.1028 0.0357
vn 0.8408 -0.4255 -0.3347
vn 0.7552 -0.4885 -0.4370
vn 0.9042 -0.3584 -0.2326
vn 0.1473 0.1201 0.9818
vn 0.1567 0.1100 0.9815
vn 0.1256 0.1433 0.9817
vn 0.0585 -0.2371 0.9697
vn -0.4531 -0.8705 0.1919
vn 0.3678 0.3491 0.8619
vn 0.0206 0.9902 0.1380
vn 0.0147 0.9897 0.1425
vn 0.0321 0.9911 0.1291
vn 0.8846 0.3986 0.2422
vn 0.9702 0.1505 0.1898
vn 0.8006 0.5370 0.2659
vn 0.2490 -0.0991 0.9634
vn 0.2471 -0.1009 0.9637
vn 0.2759 -0.0722 0.9585
vn 0.3138 -0.2810 0.9069
vn 0.1766 -0.1692 0.9696
vn 0.1189 -0.1220 0.9854
vn 0.2387 -0.0783 0.9679
vn 0.2349 -0.0825 0.9685
vn 0.1969 -0.1233 0.9726
vn -0.0984 -0.9853 -0.1394
vn -0.1778 -0.9767 -0.1202
vn -0.1970 -0.9736 -0.1154
vn 0.4501 -0.0213 -0.8927
vn 0.4241 0.0118 -0.9055
vn 0.4948 -0.0809 -0.8652
vn 0.0941 0.0712 -0.9930
vn 0.0945 0.0716 -0.9930
vn 0.1096 0.0865 -0.9902
vn 0.6379 -0.1855 -0.7474
vn 0.8633 -0.4433 0.2413
vn 0.7927 -0.4381 0.4239
vn 0.9995 0.0314 -0.0054
vn 0.9998 0.0205 0.0000
vn 0.9999 -0.0037 -0.0159
vn 0.1155 -0.4717 -0.8742
vn 0.1166 -0.4725 -0.8736
vn 0.0849 -0.4481 -0.8899
vn -0.9864 -0.1612 0.0326
vn -0.9817 -0.1830 0.0527
vn -0.9887 -0.1486 0.0210
vn -0.6067 0.7839 0.1319
vn -0.6424 0.7512 0.1518
vn -0.5863 0.8010 0.1208
vn -0.0990 0.0127 -0.9950
vn -0.0906 0.0068 -0.9959
vn -0.1125 0.0222 -0.9934
vn -0.9918 -0.1275 -0.0046
vn -0.9917 -0.1282 -0.0039
vn -0.9933 -0.1147 -0.0163
vn -0.5326 -0.1228 -0.8374
vn -0.5294 -0.1509 -0.8349
vn -0.5360 -0.0889 -0.8395
vn -0.1364 -0.1614 0.9774
vn -0.1384 -0.1636 0.9768
vn -0.1480 -0.1735 0.9737
vn 0.4270 -0.8936 -0.1382
vn 0.4384 -0.8853 -0.1553
vn 0.4506 -0.8756 -0.1739
vn -0.0201 0.9903 0.1377
vn -0.0144 0.9897 0.1422
vn -0.0010 0.9883 0.1524
vn -0.7669 0.5913 0.2495
vn -0.7647 0.5988 0.2378
vn -0.7474 0.6444 0.1616
vn -0.2105 -0.0776 0.9745
vn -0.2213 -0.0684 0.9728
vn -0.2757 -0.0215 0.9610
vn -0.3691 -0.1719 0.9134
vn -0.6357 -0.3514 0.6873
vn -0.2904 -0.1208 0.9493
vn -0.2363 -0.0809 0.9683
vn -0.2398 -0.0771 0.9678
vn -0.1994 -0.1207 0.9725
vn 0.2836 -0.9519 -0.1157
vn 0.0403 -0.9875 -0.1524
vn 0.3063 -0.9453 -0.1117
vn -0.5238 -0.0538 -0.8501
vn -0.4472 0.0179 -0.8943
vn -0.4206 0.0415 -0.9063
vn -0.0940 0.0712 -0.9930
vn -0.0944 0.0716 -0.9930
vn -0.0785 0.0560 -0.9953
vn 0.1691 -0.1973 0.9657
vn 0.1567 -0.2366 0.9589
vn 0.1870 -0.1380 0.9726
vn -0.9992 0.0407 0.0034
vn -0.9999 0.0142 0.0063
vn -0.9993 0.0375 0.0016
vn -0.1336 -0.2371 -0.9622
vn -0.1377 -0.2410 -0.9607
vn -0.1189 -0.2233 -0.9675
vn 0.9797 -0.1999 0.0140
vn 0.9828 -0.1833 0.0204
vn 0.9769 -0.2133 0.0088
vn -0.0001 -0.9735 0.2285
vn 0.5753 -0.8026 -0.1578
vn -0.5791 -0.8009 -0.1523
vn -0.2418 -0.3686 -0.8976
vn 0.2326 -0.3712 -0.8990
vn 0.9352 -0.2952 0.1957
vn -0.0525 0.1279 0.9904
vn -0.9341 -0.2926 0.2047
vn -0.4128 0.0891 -0.9065
vn 0.4072 0.0893 -0.9090
vn 0.0053 -0.0494 0.9988
vn 0.0635 0.1277 0.9898
vn -0.9352 0.2952 -0.1957
vn -0.0044 0.4056 -0.9140
vn 0.9341 0.2926 -0.2047
vn -0.0879 0.0181 0.9960
vn 0.0987 0.0178 0.9950
vn -0.5753 0.8026 0.1578
vn 0.0001 0.9735 -0.2285
vn 0.5791 0.8009 0.1523
vn -0.0000 -0.7919 -0.6107
vn 0.3395 -0.1406 -0.9300
vn 0.1348 0.3255 -0.9359
vn 0.3812 0.1579 -0.9109
vn 0.5753 0.7979 0.1800
vn 0.1131 0.0085 -0.9935
vn 0.9860 -0.1651 -0.0223
vn 0.6555 -0.5399 -0.5281
vn 0.1802 0.0846 0.9800
vn -0.5101 -0.8413 -0.1786
vn 0.0009 0.9882 0.1531
vn 0.9621 -0.2610 0.0796
vn 0.2196 -0.1280 0.9672
vn 0.4199 -0.3667 0.8302
vn 0.2758 -0.0372 0.9605
vn -0.0716 -0.9867 -0.1456
vn 0.3991 0.0427 -0.9159
vn 0.0786 0.0560 -0.9953
vn 0.5786 -0.1492 -0.8019
vn 0.9995 0.0308 -0.0055
vn 0.1497 -0.4971 -0.8547
vn -0.9757 -0.2060 0.0741
vn -0.6721 0.7209 0.1688
vn -0.0768 -0.0029 -0.9970
vn -0.9899 -0.1418 0.0087
vn -0.5204 -0.2141 -0.8266
vn -0.1261 -0.1508 0.9805
vn 0.3923 -0.9157 -0.0875
vn -0.0314 0.9911 0.1291
vn -0.7805 0.4924 0.3851
vn -0.1479 -0.1297 0.9805
vn -0.7363 -0.4238 0.5275
vn -0.2758 -0.0372 0.9605
vn -0.0029 -0.9874 -0.1579
vn -0.5834 -0.1140 -0.8042
vn -0.1096 0.0865 -0.9902
vn 0.1166 -0.3557 0.9273
vn -0.9989 -0.0246 -0.0402
vn -0.1517 -0.2541 -0.9552
vn 0.9845 -0.1739 0.0240
vn 0.5878 0.8060 0.0704
vn 0.9511 -0.3078 -0.0269
vn -0.9511 -0.3079 -0.0269
vn -0.5878 0.8059 0.0704
vn 0.0000 -0.8442 -0.5360
vn -0.8442 -0.2332 -0.4826
vn 0.8442 -0.2332 -0.4826
vn -0.5217 0.7555 -0.3963
vn 0.5217 0.7555 -0.3963
vn -0.9999 0.0163 0.0014
vn 0.0000 0.1033 -0.9947
vn 0.9999 0.0163 0.0014
vn -0.0000 -0.0707 0.9975
vn -0.0000 0.9962 0.0871
vn 0.1454 0.0861 -0.9856
vn 0.1453 -0.0861 0.9856
vn 0.2927 -0.9526 -0.0832
vn 0.2927 0.9526 0.0832
vn -0.1453 0.0861 -0.9856
vn -0.2927 -0.9526 -0.0832
vn -0.2927 0.9526 0.0832
vn -0.1454 -0.0861 0.9856
vn 0.4809 -0.8641 0.1489
vn 0.4808 -0.8641 0.1490
vn 0.4817 -0.8636 0.1486
vn -0.4271 -0.1277 0.8952
vn 0.7072 0.5134 0.4861
vn 0.7085 0.5127 0.4850
vn 0.7112 0.5112 0.4826
vn -0.5365 0.8321 -0.1408
vn -0.5356 0.8326 -0.1412
vn -0.5284 0.8366 -0.1443
vn -0.7270 -0.5198 -0.4486
vn -0.7280 -0.5192 -0.4477
vn -0.7243 -0.5215 -0.4511
vn 0.1083 -0.1979 0.9742
vn 0.1061 -0.1967 0.9747
vn 0.1025 -0.1945 0.9755
vn -0.0350 -0.9902 -0.1350
vn -0.0392 -0.9896 -0.1382
vn -0.0106 -0.9932 -0.1161
vn 0.0594 -0.1963 -0.9787
vn 0.0902 -0.2352 -0.9677
vn 0.1501 -0.3099 -0.9389
vn 0.9992 -0.0327 -0.0221
vn 0.9931 -0.0916 -0.0731
vn -0.9754 -0.2153 0.0470
vn -0.9772 -0.2053 0.0537
vn -0.9802 -0.1866 0.0664
vn -0.5079 -0.1927 -0.8396
vn -0.5079 -0.1928 -0.8396
vn -0.5078 -0.1938 -0.8394
vn -0.4930 -0.7582 0.4267
vn -0.7339 0.5847 0.3457
vn -0.7340 0.5837 0.3472
vn -0.7338 0.5868 0.3425
vn 0.5292 0.1327 0.8381
vn 0.5293 0.1317 0.8381
vn 0.5281 0.1415 0.8373
vn 0.7144 -0.6173 -0.3295
vn 0.7143 -0.6181 -0.3283
vn 0.7140 -0.6201 -0.3250
vn -0.1188 -0.5611 0.8192
vn -0.1264 -0.5646 0.8156
vn -0.1088 -0.5564 0.8237
vn 0.0696 -0.8531 -0.5171
vn 0.0738 -0.8512 -0.5196
vn 0.0972 -0.8405 -0.5330
vn -0.0865 0.1726 -0.9812
vn -0.0239 0.2800 -0.9597
vn -0.1488 0.0606 -0.9870
vn -0.9953 -0.0743 -0.0624
vn 0.9829 -0.1843 0.0026
vn 0.9824 -0.1869 -0.0009
vn 0.9834 -0.1815 0.0063
vn 0.5218 0.7555 -0.3963
vn -0.0000 0.9962 0.0869
vn 0.4799 -0.8645 0.1493
vn 0.7044 0.5149 0.4885
vn -0.5439 0.8278 -0.1376
vn -0.7306 -0.5176 -0.4454
vn 0.1113 -0.1997 0.9735
vn -0.0619 -0.9859 -0.1557
vn -0.0103 -0.1073 -0.9942
vn -0.9659 -0.2582 0.0175
vn -0.5081 -0.1917 -0.8397
vn -0.7342 0.5815 0.3505
vn 0.5304 0.1227 0.8388
vn 0.7146 -0.6152 -0.3329
vn -0.1383 -0.5700 0.8100
vn 0.0445 -0.8636 -0.5022
vn 0.0468 0.3950 -0.9175
vn -0.9698 -0.1425 -0.1979
vn 0.9808 -0.1948 -0.0113
o Tes
usemtl Player_Helm
s off
f 152//1 151//1 154//1
f 151//2 153//2 154//2
f 152//3 154//3 155//3
f 154//4 153//4 156//4
f 155//5 154//5 156//5
o Grands
usemtl Player_White
f 35//6 57//6 56//6
f 39//7 54//7 55//7
f 37//8 59//8 58//8
f 33//9 48//9 50//9
f 49//10 56//10 61//10
f 43//6 40//6 41//6
f 46//11 158//12 160//13
f 45//8 46//8 47//8
f 41//9 44//9 45//9
f 42//14 44//14 40//14
f 47//15 41//10 45//10
f 35//7 51//7 34//7
f 37//9 52//9 36//9
f 39//10 60//10 58//10
f 49//6 65//6 62//6
f 55//7 51//7 49//7
f 53//9 48//9 52//9
f 60//10 50//10 53//10
f 58//10 53//10 37//10
f 61//10 33//10 50//10
f 58//8 38//8 39//8
f 56//6 32//6 33//6
f 63//10 65//10 64//10
f 60//9 65//9 61//9
f 55//8 64//8 60//8
f 49//7 63//7 55//7
f 87//16 91//17 89//18
f 125//19 88//20 117//21
f 92//22 86//23 88//24
f 91//25 82//26 85//27
f 86//28 102//29 100//30
f 84//31 82//32 83//33
f 87//34 116//35 118//36
f 91//37 94//38 95//39
f 124//40 86//41 93//42
f 93//43 90//44 87//45
f 118//46 93//47 87//48
f 92//49 84//50 93//51
f 92//52 91//53 85//54
f 116//55 92//56 125//57
f 84//58 94//59 90//60
f 88//61 100//62 101//63
f 88//64 103//65 117//66
f 103//67 119//68 117//69
f 121//70 113//71 115//72
f 125//73 114//74 122//75
f 114//76 123//77 122//78
f 111//79 127//80 121//81
f 112//82 134//83 119//84
f 110//85 108//86 111//87
f 113//88 116//89 115//90
f 127//91 120//92 121//93
f 112//94 124//95 123//96
f 120//97 123//98 113//99
f 123//100 118//101 113//102
f 110//103 122//104 123//105
f 122//106 121//107 115//108
f 116//109 122//110 115//111
f 126//112 110//113 120//114
f 114//115 132//116 112//117
f 135//118 114//119 117//120
f 117//121 134//122 135//123
f 140//124 141//124 142//124
f 141//125 140//125 145//125
f 140//126 142//126 143//126
f 140//127 143//127 144//127
f 140//128 144//128 145//128
f 141//129 145//129 149//129
f 150//130 155//130 156//130
f 143//131 142//131 146//131
f 144//132 143//132 147//132
f 145//133 144//133 148//133
f 141//134 152//134 142//134
f 150//135 153//135 149//135
f 143//136 146//136 147//136
f 144//137 147//137 148//137
f 145//138 148//138 149//138
f 146//139 152//139 155//139
f 149//140 151//140 141//140
f 147//141 146//141 150//141
f 148//142 147//142 150//142
f 149//143 148//143 150//143
f 159//7 158//7 157//7
f 43//144 159//145 157//146
f 42//147 157//146 158//12
f 47//15 160//13 159//145
f 35//6 34//6 57//6
f 39//7 38//7 54//7
f 37//8 36//8 59//8
f 33//9 32//9 48//9
f 49//10 35//10 56//10
f 43//6 42//6 40//6
f 46//11 42//147 158//12
f 45//8 44//8 46//8
f 41//9 40//9 44//9
f 42//14 46//14 44//14
f 47//15 43//144 41//10
f 35//7 49//7 51//7
f 37//9 53//9 52//9
f 39//10 55//10 60//10
f 49//6 61//6 65//6
f 55//7 54//7 51//7
f 53//9 50//9 48//9
f 60//10 61//10 50//10
f 58//10 60//10 53//10
f 61//10 56//10 33//10
f 58//8 59//8 38//8
f 56//6 57//6 32//6
f 63//10 62//10 65//10
f 60//9 64//9 65//9
f 55//8 63//8 64//8
f 49//7 62//7 63//7
f 87//16 90//148 91//17
f 125//19 92//149 88//20
f 92//22 93//150 86//23
f 91//25 95//151 82//26
f 86//28 119//152 102//29
f 84//31 85//153 82//32
f 87//34 89//154 116//35
f 91//37 90//155 94//38
f 124//40 119//156 86//41
f 93//43 84//157 90//44
f 118//46 124//158 93//47
f 92//49 85//159 84//50
f 92//52 89//160 91//53
f 116//55 89//161 92//56
f 84//58 83//162 94//59
f 88//61 86//163 100//62
f 88//64 101//164 103//65
f 103//67 102//165 119//68
f 121//70 120//166 113//71
f 125//73 117//167 114//74
f 114//76 112//168 123//77
f 111//79 108//169 127//80
f 112//82 132//170 134//83
f 110//85 109//171 108//86
f 113//88 118//172 116//89
f 127//91 126//173 120//92
f 112//94 119//174 124//95
f 120//97 110//175 123//98
f 123//100 124//176 118//101
f 110//103 111//177 122//104
f 122//106 111//178 121//107
f 116//109 125//179 122//110
f 126//112 109//180 110//113
f 114//115 133//181 132//116
f 135//118 133//182 114//119
f 117//121 119//183 134//122
f 150//130 146//130 155//130
f 141//134 151//134 152//134
f 150//135 156//135 153//135
f 146//139 142//139 152//139
f 149//140 153//140 151//140
f 159//7 160//7 158//7
f 43//144 47//15 159//145
f 42//147 43//144 157//146
f 47//15 46//11 160//13
o Morts
usemtl Player_Grey
f 1//184 4//184 3//184
f 3//185 6//185 5//185
f 5//14 8//14 7//14
f 8//186 9//186 7//186
f 10//187 1//187 9//187
f 5//188 14//188 13//188
f 7//189 15//189 14//189
f 5//190 12//190 3//190
f 9//191 11//191 15//191
f 1//192 12//192 11//192
f 12//7 14//7 15//7
f 19//193 16//193 17//193
f 19//194 22//194 18//194
f 21//195 22//195 23//195
f 17//196 20//196 21//196
f 23//10 17//10 21//197
f 25//193 26//193 24//193
f 31//194 26//194 27//194
f 31//195 28//195 30//195
f 25//196 28//196 29//196
f 29//10 27//10 25//10
f 69//198 72//198 68//198
f 71//8 72//8 73//8
f 67//199 70//199 71//199
f 68//200 70//200 66//200
f 73//201 67//201 71//201
f 76//6 75//6 74//6
f 74//202 79//202 78//202
f 74//203 80//203 76//203
f 79//204 77//204 81//204
f 76//205 81//205 77//205
f 82//206 96//207 98//208
f 97//209 98//209 96//209
f 94//210 96//211 95//212
f 83//213 97//214 94//215
f 83//216 98//217 99//218
f 100//219 106//220 104//221
f 106//222 105//223 104//224
f 101//225 107//226 103//227
f 101//63 104//228 105//229
f 103//230 106//231 102//232
f 108//233 128//234 127//235
f 130//236 129//236 128//236
f 128//237 126//238 127//239
f 129//240 109//241 126//242
f 109//243 130//244 108//245
f 132//246 138//247 134//248
f 138//249 137//250 139//251
f 139//252 133//253 135//254
f 133//181 136//255 132//116
f 138//256 135//257 134//258
f 1//184 2//184 4//184
f 3//185 4//185 6//185
f 5//14 6//14 8//14
f 8//186 10//186 9//186
f 10//187 2//187 1//187
f 5//188 7//188 14//188
f 7//189 9//189 15//189
f 5//190 13//190 12//190
f 9//191 1//191 11//191
f 1//192 3//259 12//192
f 15//7 11//7 12//7
f 12//7 13//7 14//7
f 19//193 18//193 16//193
f 19//194 23//194 22//194
f 21//195 20//195 22//195
f 17//196 16//196 20//196
f 23//10 19//260 17//10
f 25//193 27//193 26//193
f 31//194 30//194 26//194
f 31//195 29//195 28//195
f 25//196 24//196 28//196
f 29//10 31//260 27//10
f 69//198 73//198 72//198
f 71//8 70//8 72//8
f 67//199 66//199 70//199
f 68//200 72//200 70//200
f 73//201 69//201 67//201
f 76//6 77//6 75//6
f 74//202 75//202 79//202
f 74//203 78//203 80//203
f 79//204 75//204 77//204
f 76//205 80//205 81//205
f 82//206 95//261 96//207
f 97//209 99//209 98//209
f 94//210 97//262 96//211
f 83//213 99//263 97//214
f 83//216 82//264 98//217
f 100//219 102//265 106//220
f 106//222 107//266 105//223
f 101//225 105//267 107//226
f 101//63 100//62 104//228
f 103//230 107//268 106//231
f 108//233 130//269 128//234
f 130//236 131//236 129//236
f 128//237 129//270 126//238
f 129//240 131//271 109//241
f 109//243 131//272 130//244
f 132//246 136//273 138//247
f 138//249 136//274 137//250
f 139//252 137//275 133//253
f 133//181 137//276 136//255
f 138//256 139//277 135//257
