# Blender v2.92.0 OBJ File: 'uploads_files_1987427_heart_by_gustavo_belemmi.blend'
# www.blender.org
mtllib heart.mtl
o Sphere
v 0.000000 11.118673 -7.516859
v 0.000000 9.028222 -7.690588
v 0.000000 4.971777 -5.748192
v 0.000000 2.006822 -2.028223
v 1.725946 11.118673 -6.944671
v 1.765836 9.028222 -7.105176
v 1.624907 6.710151 -6.538120
v 1.319843 4.971777 -5.310637
v 0.932095 3.600152 -3.750463
v 0.465700 2.006822 -1.873833
v 3.189133 11.036377 -5.315220
v 3.262841 9.028222 -5.438067
v 3.002437 6.710151 -5.004061
v 2.438751 4.971777 -4.064586
v 1.722288 3.600152 -2.870480
v 0.860502 2.006822 -1.434170
v 4.166802 10.789488 -2.876576
v 4.263106 9.028222 -2.943060
v 3.922872 6.710151 -2.708178
v 3.186383 4.971777 -2.199738
v 2.250277 3.600152 -1.553493
v 1.124300 2.006822 -0.776167
v 4.328681 10.542600 0.000000
v 4.614353 9.028222 0.000001
v 4.246087 6.710151 0.000000
v 3.448915 4.971777 0.000000
v 2.435683 3.600152 -0.000000
v 1.216933 2.006822 -0.000000
v 4.166802 10.789488 2.876577
v 4.263106 9.028222 2.943061
v 3.922872 6.710151 2.708178
v 3.186382 4.971777 2.199738
v 2.250277 3.600152 1.553492
v 1.124299 2.006822 0.776166
v 3.189131 11.036377 5.315221
v 3.262840 9.028222 5.438067
v 3.002435 6.710151 5.004060
v 2.438751 4.971777 4.064585
v 1.722287 3.600152 2.870479
v 0.860501 2.006822 1.434169
v 1.725945 11.118673 6.944671
v 1.765835 9.028222 7.105176
v 1.624905 6.710151 6.538119
v 1.319842 4.971777 5.310636
v 0.932094 3.600152 3.750461
v 0.465700 2.006822 1.873832
v -0.000002 11.118673 7.516857
v -0.000001 9.028222 7.690587
v -0.000001 6.710151 7.076808
v -0.000001 4.971777 5.748190
v -0.000001 3.600152 4.059470
v -0.000001 2.006822 2.028221
v -1.725948 11.118673 6.944669
v -1.765838 9.028222 7.105174
v -1.624908 6.710151 6.538117
v -1.319844 4.971777 5.310635
v -0.932096 3.600152 3.750460
v -0.465701 2.006822 1.873831
v -3.189134 11.036377 5.315217
v -3.262841 9.028222 5.438063
v -3.002437 6.710151 5.004057
v -2.438752 4.971777 4.064582
v -1.722288 3.600152 2.870477
v -0.860502 2.006822 1.434168
v -4.166803 10.789488 2.876573
v -4.263106 9.028222 2.943057
v -3.922872 6.710151 2.708174
v -3.186382 4.971777 2.199735
v -2.250277 3.600152 1.553489
v -1.124300 2.006822 0.776165
v -4.328681 10.542600 -0.000004
v -4.614352 9.028222 -0.000004
v -4.246086 6.710151 -0.000004
v -3.448915 4.971777 -0.000003
v -2.435682 3.600152 -0.000003
v -1.216933 2.006822 -0.000002
v -4.166801 10.789488 -2.876580
v -4.263104 9.028222 -2.943063
v -3.922870 6.710151 -2.708181
v -3.186381 4.971777 -2.199740
v -2.250276 3.600152 -1.553494
v -1.124299 2.006822 -0.776168
v -3.189130 11.036377 -5.315222
v -3.262838 9.028222 -5.438069
v -3.002434 6.710151 -5.004062
v -2.438750 4.971777 -4.064587
v -1.722286 3.600152 -2.870480
v -0.860501 2.006822 -1.434170
v -1.725943 11.118673 -6.944671
v -1.765834 9.028222 -7.105176
v -1.624904 6.710151 -6.538120
v -1.319841 4.971777 -5.310637
v -0.932094 3.600152 -3.750462
v -0.465699 2.006822 -1.873833
v 0.000003 6.710151 -7.076809
v 0.000001 3.600152 -4.059470
v 0.000000 0.454611 -0.000001
v -1.503371 11.818672 -0.000003
v 1.503372 11.818672 -0.000001
v 3.059103 12.118672 1.343544
v 3.750122 12.118672 2.932463
v 2.870218 12.118672 5.127243
v 1.553350 12.118672 6.593747
v -0.000002 12.118672 7.108714
v -1.553353 12.118672 6.593745
v -2.870220 12.118672 5.127239
v -3.750123 12.118672 2.932459
v -3.059103 12.118672 1.343540
v 1.353034 12.118672 0.343542
v -1.353034 12.118672 0.343541
v 1.553352 12.118672 -6.593747
v 0.000000 12.118672 -7.108716
v 2.870219 12.118672 -5.127242
v 3.750122 12.118672 -2.932462
v 3.059103 12.118672 -1.343543
v -3.059103 12.118672 -1.343547
v -3.750121 12.118672 -2.932466
v -2.870217 12.118672 -5.127244
v -1.553349 12.118672 -6.593747
v 1.353035 12.118672 -0.343545
v -1.353034 12.118672 -0.343546
v 2.141371 13.118673 2.025656
v 2.625085 13.118673 3.137900
v 2.009152 13.118673 4.674245
v 1.087345 13.118673 5.700799
v -0.000001 13.118673 6.061275
v -1.087347 13.118673 5.700797
v -2.009154 13.118673 4.674242
v -2.625085 13.118673 3.137897
v -2.141372 13.118673 2.025654
v 0.947124 13.118673 1.325656
v -0.947124 13.118673 1.325655
v 1.087346 13.118673 -5.700799
v 0.000000 13.118673 -6.061277
v 2.009154 13.118673 -4.674246
v 2.625085 13.118673 -3.137900
v 2.141372 13.118673 -2.025657
v -2.141371 13.118673 -2.025660
v -2.625084 13.118673 -3.137902
v -2.009151 13.118673 -4.674247
v -1.087344 13.118673 -5.700799
v 0.947124 13.118673 -1.325658
v -0.947123 13.118673 -1.325659
v 1.050033 13.718672 3.425512
v 0.856548 13.718672 2.980614
v 0.803660 13.718672 4.040050
v 0.434937 13.718672 4.450671
v -0.000001 13.718672 4.594862
v -0.434939 13.718672 4.450670
v -0.803662 13.718672 4.040049
v -1.050035 13.718672 3.425511
v -0.856549 13.718672 2.980613
v 0.378849 13.718672 2.700614
v -0.378850 13.718672 2.700614
v 0.434939 13.718674 -4.450673
v 0.000001 13.718674 -4.594864
v 0.803662 13.718674 -4.040051
v 1.050035 13.718674 -3.425513
v 0.856549 13.718674 -2.980616
v -0.856548 13.718674 -2.980617
v -1.050033 13.718674 -3.425514
v -0.803660 13.718674 -4.040052
v -0.434937 13.718674 -4.450673
v 0.378850 13.718674 -2.700616
v -0.378849 13.718674 -2.700617
v 0.000001 13.878809 -3.559987
v -0.000001 13.878806 3.559984
vn 0.0000 -0.4253 -0.9051
vn 0.5394 -0.0776 -0.8384
vn 0.4997 -0.3964 -0.7701
vn 0.0000 -0.7807 -0.6249
vn 0.3664 -0.7553 -0.5433
vn 0.0000 -0.7899 -0.6132
vn 0.4221 -0.6487 -0.6332
vn 0.0000 -0.6849 -0.7286
vn 0.0000 0.2264 -0.9740
vn 0.0000 -0.0850 -0.9964
vn 0.0000 -1.0000 0.0000
vn 0.3725 -0.7454 -0.5528
vn 0.6293 -0.6750 -0.3852
vn 0.6207 -0.6859 -0.3797
vn 0.6942 -0.5780 -0.4290
vn 0.8383 0.1900 -0.5111
vn 0.8441 -0.0630 -0.5324
vn 0.7957 -0.3406 -0.5008
vn 0.7518 -0.6314 -0.1900
vn 0.7606 -0.6200 -0.1923
vn 0.9234 -0.3003 -0.2389
vn 0.8254 -0.5238 -0.2107
vn 0.9628 0.2340 -0.1348
vn 0.9700 -0.0419 -0.2394
vn 0.7996 -0.6006 0.0000
vn 0.9580 -0.2867 0.0000
vn 0.7908 -0.6120 0.0000
vn 0.8632 -0.5048 0.0000
vn 0.8861 0.4634 0.0000
vn 0.9999 0.0143 0.0000
vn 0.7518 -0.6314 0.1900
vn 0.8254 -0.5238 0.2107
vn 0.9700 -0.0419 0.2394
vn 0.7606 -0.6200 0.1923
vn 0.9234 -0.3003 0.2389
vn 0.6942 -0.5780 0.4290
vn 0.9628 0.2340 0.1348
vn 0.8441 -0.0630 0.5324
vn 0.6207 -0.6859 0.3797
vn 0.6293 -0.6750 0.3852
vn 0.7957 -0.3406 0.5008
vn 0.3664 -0.7553 0.5433
vn 0.3725 -0.7454 0.5528
vn 0.4997 -0.3964 0.7701
vn 0.4221 -0.6487 0.6332
vn 0.8383 0.1900 0.5111
vn 0.5394 -0.0776 0.8384
vn 0.0000 -0.0850 0.9964
vn 0.0000 -0.4253 0.9051
vn 0.0000 -0.7899 0.6132
vn 0.0000 -0.6849 0.7286
vn 0.5355 0.2154 0.8166
vn 0.0000 -0.7807 0.6249
vn -0.3664 -0.7553 0.5433
vn -0.4221 -0.6487 0.6332
vn 0.0000 0.2264 0.9740
vn -0.5394 -0.0776 0.8384
vn -0.3725 -0.7454 0.5528
vn -0.4997 -0.3964 0.7701
vn -0.8383 0.1900 0.5111
vn -0.8441 -0.0630 0.5324
vn -0.6207 -0.6859 0.3797
vn -0.6942 -0.5780 0.4290
vn -0.6293 -0.6750 0.3852
vn -0.7957 -0.3406 0.5008
vn -0.7518 -0.6314 0.1900
vn -0.8254 -0.5238 0.2107
vn -0.7606 -0.6200 0.1923
vn -0.9234 -0.3003 0.2389
vn -0.9628 0.2340 0.1348
vn -0.9700 -0.0419 0.2394
vn -0.7908 -0.6120 0.0000
vn -0.9580 -0.2867 0.0000
vn -0.8632 -0.5048 0.0000
vn -0.8861 0.4634 0.0000
vn -0.9999 0.0143 0.0000
vn -0.7996 -0.6006 0.0000
vn -0.7518 -0.6314 -0.1900
vn -0.8254 -0.5238 -0.2107
vn -0.9700 -0.0419 -0.2394
vn -0.7606 -0.6200 -0.1923
vn -0.9234 -0.3003 -0.2389
vn -0.6207 -0.6859 -0.3797
vn -0.6293 -0.6750 -0.3852
vn -0.8441 -0.0630 -0.5324
vn -0.7957 -0.3406 -0.5008
vn -0.6942 -0.5780 -0.4290
vn -0.9628 0.2340 -0.1348
vn -0.4221 -0.6487 -0.6332
vn -0.3725 -0.7454 -0.5528
vn -0.4997 -0.3964 -0.7701
vn -0.3664 -0.7553 -0.5433
vn -0.8383 0.1900 -0.5111
vn -0.5394 -0.0776 -0.8384
vn -0.5355 0.2154 -0.8166
vn -0.2612 0.9653 0.0000
vn 0.1675 0.7550 -0.6340
vn 0.2612 0.9653 0.0000
vn -0.1675 0.7550 0.6340
vn -0.7305 0.5137 0.4500
vn -0.5505 0.8348 0.0050
vn -0.8541 0.5196 -0.0203
vn 0.7305 0.5137 0.4500
vn 0.4646 0.5318 0.7081
vn 0.8541 0.5196 -0.0203
vn 0.0000 0.5442 0.8389
vn 0.5772 0.7155 -0.3934
vn -0.4646 0.5318 0.7081
vn -0.5355 0.2154 0.8166
vn -0.5772 0.7155 -0.3934
vn -0.1674 0.7550 -0.6340
vn 0.4646 0.5318 -0.7081
vn 0.4964 0.8108 -0.3103
vn 0.7305 0.5137 -0.4500
vn 0.5355 0.2154 -0.8166
vn 0.5772 0.7155 0.3934
vn 0.8541 0.5196 0.0203
vn -0.4646 0.5318 -0.7081
vn 0.0000 0.5442 -0.8389
vn 0.1674 0.7550 0.6340
vn -0.5772 0.7155 0.3934
vn -0.8541 0.5196 0.0203
vn -0.7305 0.5137 -0.4500
vn 0.3209 0.8142 0.4838
vn 0.0000 0.8220 0.5695
vn 0.1429 0.8262 -0.5450
vn 0.5505 0.8348 0.0050
vn -0.4009 0.8417 -0.3615
vn -0.3209 0.8142 0.4838
vn 0.4964 0.8108 0.3103
vn 0.4009 0.8417 -0.3615
vn -0.4964 0.8108 0.3103
vn -0.1429 0.8262 -0.5450
vn 0.4009 0.8417 0.3615
vn 0.1429 0.8262 0.5450
vn -0.5505 0.8348 -0.0050
vn -0.4964 0.8108 -0.3103
vn 0.5505 0.8348 -0.0050
vn -0.4009 0.8417 0.3615
vn -0.3209 0.8142 -0.4838
vn -0.1429 0.8262 0.5450
vn 0.3209 0.8142 -0.4838
vn 0.0000 0.8220 -0.5695
vn 0.2807 0.9597 0.0077
vn 0.2547 0.9536 0.1606
vn -0.2547 0.9536 -0.1606
vn -0.1656 0.9547 -0.2470
vn -0.2025 0.9618 0.1841
vn 0.2807 0.9597 -0.0077
vn -0.2807 0.9597 -0.0077
vn 0.2025 0.9618 0.1841
vn 0.0724 0.9564 0.2828
vn 0.2547 0.9536 -0.1606
vn 0.0000 0.9572 -0.2895
vn 0.1656 0.9547 -0.2470
vn -0.0724 0.9564 0.2828
vn -0.1656 0.9547 0.2470
vn -0.2807 0.9597 0.0077
vn -0.2025 0.9618 -0.1841
vn 0.0724 0.9564 -0.2828
vn 0.1656 0.9547 0.2470
vn 0.0000 0.9572 0.2895
vn -0.0724 0.9564 -0.2828
vn -0.2547 0.9536 0.1606
vn 0.2025 0.9618 -0.1841
vn 0.0000 1.0000 0.0028
vn 0.0000 1.0000 -0.0028
usemtl Material.006
s 1
f 95//1 6//2 7//3
f 96//4 10//5 4//6
f 95//1 8//7 3//8
f 1//9 6//2 2//10
f 97//11 4//6 10//5
f 96//4 8//7 9//12
f 10//5 15//13 16//14
f 7//3 14//15 8//7
f 6//2 11//16 12//17
f 97//11 10//5 16//14
f 9//12 14//15 15//13
f 6//2 13//18 7//3
f 97//11 16//14 22//19
f 14//15 21//20 15//13
f 12//17 19//21 13//18
f 15//13 22//19 16//14
f 13//18 20//22 14//15
f 12//17 17//23 18//24
f 20//22 27//25 21//20
f 18//24 25//26 19//21
f 21//20 28//27 22//19
f 19//21 26//28 20//22
f 18//24 23//29 24//30
f 97//11 22//19 28//27
f 27//25 34//31 28//27
f 25//26 32//32 26//28
f 23//29 30//33 24//30
f 97//11 28//27 34//31
f 26//28 33//34 27//25
f 24//30 31//35 25//26
f 31//35 38//36 32//32
f 29//37 36//38 30//33
f 97//11 34//31 40//39
f 33//34 38//36 39//40
f 31//35 36//38 37//41
f 33//34 40//39 34//31
f 97//11 40//39 46//42
f 38//36 45//43 39//40
f 36//38 43//44 37//41
f 39//40 46//42 40//39
f 38//36 43//44 44//45
f 35//46 42//47 36//38
f 43//44 48//48 49//49
f 45//43 52//50 46//42
f 44//45 49//49 50//51
f 41//52 48//48 42//47
f 97//11 46//42 52//50
f 45//43 50//51 51//53
f 51//53 58//54 52//50
f 49//49 56//55 50//51
f 47//56 54//57 48//48
f 97//11 52//50 58//54
f 51//53 56//55 57//58
f 48//48 55//59 49//49
f 54//57 59//60 60//61
f 97//11 58//54 64//62
f 57//58 62//63 63//64
f 54//57 61//65 55//59
f 57//58 64//62 58//54
f 55//59 62//63 56//55
f 97//11 64//62 70//66
f 63//64 68//67 69//68
f 60//61 67//69 61//65
f 63//64 70//66 64//62
f 61//65 68//67 62//63
f 60//61 65//70 66//71
f 69//68 76//72 70//66
f 68//67 73//73 74//74
f 66//71 71//75 72//76
f 97//11 70//66 76//72
f 69//68 74//74 75//77
f 66//71 73//73 67//69
f 75//77 82//78 76//72
f 73//73 80//79 74//74
f 71//75 78//80 72//76
f 97//11 76//72 82//78
f 74//74 81//81 75//77
f 73//73 78//80 79//82
f 97//11 82//78 88//83
f 80//79 87//84 81//81
f 79//82 84//85 85//86
f 81//81 88//83 82//78
f 79//82 86//87 80//79
f 77//88 84//85 78//80
f 87//84 92//89 93//90
f 84//85 91//91 85//86
f 88//83 93//90 94//92
f 85//86 92//89 86//87
f 83//93 90//94 84//85
f 97//11 88//83 94//92
f 93//90 4//6 94//92
f 91//91 3//8 92//89
f 89//95 2//10 90//94
f 97//11 94//92 4//6
f 93//90 3//8 96//4
f 91//91 2//10 95//1
f 98//96 109//97 99//98
f 99//98 121//99 98//96
f 106//100 129//101 107//102
f 41//52 102//103 103//104
f 35//46 101//105 102//103
f 47//56 103//104 104//106
f 99//98 100//107 23//29
f 47//56 105//108 53//109
f 53//109 106//100 59//60
f 29//37 100//107 101//105
f 98//96 108//110 110//111
f 65//70 108//110 71//75
f 59//60 107//102 65//70
f 111//112 135//113 113//114
f 1//9 111//112 5//115
f 17//23 115//116 23//29
f 11//16 114//117 17//23
f 1//9 119//118 112//119
f 99//98 115//116 120//120
f 77//88 116//121 117//122
f 89//95 118//123 119//118
f 83//93 117//122 118//123
f 98//96 116//121 71//75
f 5//115 113//114 11//16
f 104//106 125//124 126//125
f 110//111 131//126 109//97
f 100//107 123//127 101//105
f 108//110 129//101 130//128
f 104//106 127//129 105//108
f 102//103 123//127 124//130
f 109//97 122//131 100//107
f 105//108 128//132 106//100
f 103//104 124//130 125//124
f 110//111 130//128 132//133
f 120//120 137//134 142//135
f 118//123 139//136 140//137
f 113//114 136//138 114//117
f 121//99 138//139 116//121
f 119//118 140//137 141//140
f 115//116 136//138 137//134
f 120//120 143//141 121//99
f 112//119 133//142 111//112
f 112//119 141//140 134//143
f 116//121 139//136 117//122
f 124//130 144//144 146//145
f 141//140 162//146 163//147
f 143//141 160//148 138//139
f 135//113 158//149 136//138
f 140//137 161//150 162//146
f 142//135 159//151 164//152
f 133//142 157//153 135//113
f 138//139 161//150 139//136
f 134//143 163//147 156//154
f 134//143 155//155 133//142
f 143//141 164//152 165//156
f 137//134 158//149 159//151
f 126//125 149//157 127//129
f 130//128 151//158 152//159
f 122//131 144//144 123//127
f 132//133 153//160 131//126
f 126//125 147//161 148//162
f 128//132 151//158 129//101
f 132//133 152//159 154//163
f 125//124 146//145 147//161
f 127//129 150//164 128//132
f 131//126 145//165 122//131
f 155//155 156//154 166//166
f 156//154 163//147 166//166
f 163//147 162//146 166//166
f 162//146 161//150 166//166
f 161//150 160//148 166//166
f 160//148 165//156 166//166
f 165//156 164//152 166//166
f 164//152 159//151 166//166
f 159//151 158//149 166//166
f 158//149 157//153 166//166
f 157//153 155//155 166//166
f 154//163 152//159 167//167
f 152//159 151//158 167//167
f 151//158 150//164 167//167
f 150//164 149//157 167//167
f 149//157 148//162 167//167
f 148//162 147//161 167//167
f 147//161 146//145 167//167
f 146//145 144//144 167//167
f 144//144 145//165 167//167
f 145//165 153//160 167//167
f 153//160 154//163 167//167
f 95//1 2//10 6//2
f 96//4 9//12 10//5
f 95//1 7//3 8//7
f 1//9 5//115 6//2
f 96//4 3//8 8//7
f 10//5 9//12 15//13
f 7//3 13//18 14//15
f 6//2 5//115 11//16
f 9//12 8//7 14//15
f 6//2 12//17 13//18
f 14//15 20//22 21//20
f 12//17 18//24 19//21
f 15//13 21//20 22//19
f 13//18 19//21 20//22
f 12//17 11//16 17//23
f 20//22 26//28 27//25
f 18//24 24//30 25//26
f 21//20 27//25 28//27
f 19//21 25//26 26//28
f 18//24 17//23 23//29
f 27//25 33//34 34//31
f 25//26 31//35 32//32
f 23//29 29//37 30//33
f 26//28 32//32 33//34
f 24//30 30//33 31//35
f 31//35 37//41 38//36
f 29//37 35//46 36//38
f 33//34 32//32 38//36
f 31//35 30//33 36//38
f 33//34 39//40 40//39
f 38//36 44//45 45//43
f 36//38 42//47 43//44
f 39//40 45//43 46//42
f 38//36 37//41 43//44
f 35//46 41//52 42//47
f 43//44 42//47 48//48
f 45//43 51//53 52//50
f 44//45 43//44 49//49
f 41//52 47//56 48//48
f 45//43 44//45 50//51
f 51//53 57//58 58//54
f 49//49 55//59 56//55
f 47//56 53//109 54//57
f 51//53 50//51 56//55
f 48//48 54//57 55//59
f 54//57 53//109 59//60
f 57//58 56//55 62//63
f 54//57 60//61 61//65
f 57//58 63//64 64//62
f 55//59 61//65 62//63
f 63//64 62//63 68//67
f 60//61 66//71 67//69
f 63//64 69//68 70//66
f 61//65 67//69 68//67
f 60//61 59//60 65//70
f 69//68 75//77 76//72
f 68//67 67//69 73//73
f 66//71 65//70 71//75
f 69//68 68//67 74//74
f 66//71 72//76 73//73
f 75//77 81//81 82//78
f 73//73 79//82 80//79
f 71//75 77//88 78//80
f 74//74 80//79 81//81
f 73//73 72//76 78//80
f 80//79 86//87 87//84
f 79//82 78//80 84//85
f 81//81 87//84 88//83
f 79//82 85//86 86//87
f 77//88 83//93 84//85
f 87//84 86//87 92//89
f 84//85 90//94 91//91
f 88//83 87//84 93//90
f 85//86 91//91 92//89
f 83//93 89//95 90//94
f 93//90 96//4 4//6
f 91//91 95//1 3//8
f 89//95 1//9 2//10
f 93//90 92//89 3//8
f 91//91 90//94 2//10
f 98//96 110//111 109//97
f 99//98 120//120 121//99
f 106//100 128//132 129//101
f 41//52 35//46 102//103
f 35//46 29//37 101//105
f 47//56 41//52 103//104
f 99//98 109//97 100//107
f 47//56 104//106 105//108
f 53//109 105//108 106//100
f 29//37 23//29 100//107
f 98//96 71//75 108//110
f 65//70 107//102 108//110
f 59//60 106//100 107//102
f 111//112 133//142 135//113
f 1//9 112//119 111//112
f 17//23 114//117 115//116
f 11//16 113//114 114//117
f 1//9 89//95 119//118
f 99//98 23//29 115//116
f 77//88 71//75 116//121
f 89//95 83//93 118//123
f 83//93 77//88 117//122
f 98//96 121//99 116//121
f 5//115 111//112 113//114
f 104//106 103//104 125//124
f 110//111 132//133 131//126
f 100//107 122//131 123//127
f 108//110 107//102 129//101
f 104//106 126//125 127//129
f 102//103 101//105 123//127
f 109//97 131//126 122//131
f 105//108 127//129 128//132
f 103//104 102//103 124//130
f 110//111 108//110 130//128
f 120//120 115//116 137//134
f 118//123 117//122 139//136
f 113//114 135//113 136//138
f 121//99 143//141 138//139
f 119//118 118//123 140//137
f 115//116 114//117 136//138
f 120//120 142//135 143//141
f 112//119 134//143 133//142
f 112//119 119//118 141//140
f 116//121 138//139 139//136
f 124//130 123//127 144//144
f 141//140 140//137 162//146
f 143//141 165//156 160//148
f 135//113 157//153 158//149
f 140//137 139//136 161//150
f 142//135 137//134 159//151
f 133//142 155//155 157//153
f 138//139 160//148 161//150
f 134//143 141//140 163//147
f 134//143 156//154 155//155
f 143//141 142//135 164//152
f 137//134 136//138 158//149
f 126//125 148//162 149//157
f 130//128 129//101 151//158
f 122//131 145//165 144//144
f 132//133 154//163 153//160
f 126//125 125//124 147//161
f 128//132 150//164 151//158
f 132//133 130//128 152//159
f 125//124 124//130 146//145
f 127//129 149//157 150//164
f 131//126 153//160 145//165
